<?xml version="1.0" standalone="no"?>
<!DOCTYPE svg PUBLIC "-//W3C//DTD SVG 20010904//EN"
 "http://www.w3.org/TR/2001/REC-SVG-20010904/DTD/svg10.dtd">
<svg version="1.0" xmlns="http://www.w3.org/2000/svg"
 width="1000.000000pt" height="1000.000000pt" viewBox="0 0 1000.000000 1000.000000"
 preserveAspectRatio="xMidYMid meet">
<metadata>
Created by potrace 1.14, written by Peter Selinger 2001-2017
</metadata>
<g transform="translate(0.000000,1000.000000) scale(0.100000,-0.100000)"
fill="#000000" stroke="none">
<path d="M2886 9779 c-266 -28 -517 -145 -708 -330 -243 -237 -370 -534 -370
-866 0 -164 22 -285 80 -438 15 -38 27 -73 27 -77 0 -4 -61 -69 -136 -145 -74
-76 -167 -174 -204 -218 -38 -44 -74 -85 -80 -92 -65 -76 -197 -257 -287 -394
-229 -347 -386 -671 -518 -1069 -51 -152 -129 -444 -144 -535 -11 -67 -18
-102 -26 -140 -4 -22 -11 -65 -14 -96 -4 -31 -8 -66 -11 -77 -6 -31 -16 -128
-21 -207 -3 -38 -7 -95 -9 -125 -6 -77 -6 -419 0 -510 17 -265 58 -548 109
-765 l14 -59 -58 -63 c-133 -142 -215 -303 -266 -525 -13 -57 -12 -296 1 -366
84 -425 389 -737 815 -832 90 -20 286 -26 355 -10 43 10 50 4 155 -122 65 -80
339 -353 430 -429 35 -30 76 -64 90 -77 14 -13 84 -67 155 -121 120 -91 187
-137 335 -233 69 -45 269 -157 335 -189 28 -13 57 -28 65 -34 8 -7 38 -21 66
-33 27 -11 85 -37 127 -56 42 -20 83 -36 90 -36 8 0 17 -3 21 -7 22 -23 505
-184 596 -199 14 -3 61 -14 106 -25 45 -11 108 -24 140 -30 139 -23 233 -38
284 -44 30 -3 62 -8 70 -10 8 -2 62 -7 120 -11 58 -4 119 -8 135 -10 48 -5
453 -4 525 1 219 16 405 39 565 70 17 3 55 10 85 15 222 41 633 169 865 270
70 31 243 111 255 119 8 5 40 22 70 37 205 102 579 347 752 492 231 195 408
365 543 522 26 30 61 71 78 89 40 45 158 196 223 286 84 116 254 385 254 403
0 3 6 13 14 21 14 17 113 209 166 326 103 224 229 581 275 775 38 160 80 378
90 460 3 30 8 62 10 70 2 8 7 44 10 80 3 36 8 81 10 100 16 137 23 533 11 675
-3 39 -8 104 -11 145 -3 41 -7 86 -10 100 -2 14 -7 50 -10 80 -11 101 -29 202
-62 355 -40 186 -39 172 -7 197 59 46 167 163 215 234 122 182 177 364 177
589 0 109 -5 148 -28 243 -100 399 -409 689 -824 772 -126 26 -341 15 -467
-23 l-47 -14 -60 71 c-66 77 -335 347 -392 393 -19 15 -44 36 -55 47 -36 34
-249 201 -317 249 -226 159 -435 283 -673 398 -148 71 -416 184 -459 194 -6 1
-18 5 -26 8 -8 3 -60 20 -115 37 -148 47 -165 52 -178 54 -7 2 -31 8 -53 14
-23 7 -64 17 -90 22 -89 19 -99 21 -116 26 -9 2 -41 9 -72 14 -31 6 -82 15
-113 21 -32 5 -76 12 -98 15 -22 2 -74 9 -115 14 -41 5 -109 12 -150 15 -41 4
-95 8 -120 10 -60 6 -498 6 -530 1 -14 -2 -69 -7 -122 -11 -53 -3 -105 -7
-115 -9 -10 -2 -47 -7 -83 -11 -75 -8 -107 -12 -135 -18 -11 -3 -40 -8 -65
-12 -25 -4 -54 -9 -65 -11 -11 -3 -36 -7 -55 -10 -19 -3 -38 -8 -42 -10 -3 -2
-32 35 -63 82 -159 238 -434 430 -712 495 -126 30 -285 40 -407 28z"/>
</g>
</svg>
